<svg width="133" height="76" viewBox="0 0 133 76" fill="none" xmlns="http://www.w3.org/2000/svg">
<path d="M53.1398 35.1477C57.249 35.1708 60.9633 32.3429 61.0477 27.6787C61.1171 23.752 58.2107 20.1953 53.3478 20.1115C48.9883 20.0363 45.5966 23.1737 45.5122 27.4705C45.4278 31.7819 48.8406 35.0291 53.1398 35.1477ZM60.894 16.7023V15.7914C60.894 10.8208 60.909 5.85308 60.8759 0.882449C60.8698 0.168228 61.0929 -0.0110498 61.8075 0.000516539C64.147 0.0381071 66.4895 0.0352156 68.829 0.00340819C69.5224 -0.00526656 69.7335 0.214494 69.7335 0.873774C69.7184 14.4179 69.7214 27.965 69.7184 41.5121C69.7184 41.755 69.6732 41.9978 69.6461 42.2697H61.1291V38.3689C61.0718 38.3516 61.0176 38.3371 60.9603 38.3198C60.6467 38.6754 60.3543 39.0484 60.0196 39.3839C57.6349 41.7665 54.6804 42.8971 51.2706 42.9376C47.288 42.9839 43.854 41.6856 41.1045 38.8865C38.9218 36.6629 37.6224 34.0026 37.0857 30.9954C36.537 27.9361 36.7239 24.9404 37.6857 21.9592C39.6272 15.9447 45.6539 11.8762 52.1841 12.3967C55.3949 12.6512 58.2499 13.7991 60.3302 16.3148C60.4116 16.4131 60.5081 16.4999 60.6045 16.5837C60.6377 16.6127 60.698 16.6242 60.894 16.7023Z" fill="#2D2D2D"/>
<path d="M24.6403 27.6152C24.7338 23.4022 21.4084 20.1115 16.8439 20.1202C12.4664 20.1318 9.14402 23.3993 9.13799 27.5921C9.13196 31.941 12.4091 35.1391 16.8831 35.1478C21.3451 35.1593 24.6464 31.9555 24.6403 27.6152ZM24.7579 17.2749V13.0503H33.2658V42.2524H24.767V38.129C24.6825 38.0769 24.5981 38.022 24.5137 37.97C24.4534 38.1059 24.4172 38.2649 24.3268 38.3806C21.2788 42.2668 17.1062 43.4726 12.3156 42.6572C5.98145 41.5815 2.32746 37.623 0.871285 31.8225C-0.289431 27.1959 0.274345 22.659 2.99977 18.5761C5.46892 14.8778 9.0174 12.7727 13.6633 12.4431C17.0821 12.2002 20.1241 13.0358 22.741 15.1612C23.4495 15.7366 24.0102 16.4826 24.7579 17.2749Z" fill="#2D2D2D"/>
<path d="M83.4751 42.2438C83.2007 42.2698 83.0258 42.3016 82.848 42.3016C80.1436 42.3045 77.4424 42.3045 74.6928 42.3045V12.9781H76.9961C78.8111 12.9781 80.626 13.0012 82.441 12.9636C83.0801 12.9521 83.255 13.1631 83.2369 13.7472C83.1977 14.9733 83.2248 16.2022 83.3002 17.4947C85.2598 13.8918 88.2325 12.073 92.5015 12.4865C94.7958 12.7092 96.5685 13.5709 97.4338 14.8836C95.1576 16.74 93.8522 19.1516 93.2884 21.9217C92.4864 21.6875 91.7327 21.3752 90.9489 21.2538C87.5722 20.7333 85.299 22.0924 84.2197 25.2124C83.6228 26.9329 83.469 28.7054 83.4751 30.5069C83.4901 34.1156 83.4781 37.7214 83.4781 41.33V42.2438H83.4751Z" fill="#2D2D2D"/>
<path d="M124.435 32.8634C122.819 30.021 120.935 27.2682 118.242 25.4581C117.974 25.2875 117.793 25.2007 117.525 25.0272C113.666 23.0465 108.55 24.8537 106.484 26.8345C105.049 28.2109 101.637 31.915 100.47 36.3044C100.379 36.7353 99.4809 40.4365 101.637 42.1599C102.264 42.6775 103.162 42.9348 104.238 42.9348C105.496 42.9348 107.021 42.5907 108.815 41.8158C111.866 40.5232 114.471 40.1791 116.623 40.8702C117.25 41.0408 117.881 41.3878 118.598 41.7319C119.406 42.1628 120.214 42.5936 121.022 42.7642C122.638 43.1083 124.881 42.4201 126.048 41.2143C128.113 39.063 126.138 35.7897 124.881 33.6384C124.703 33.381 124.525 33.1208 124.435 32.8634Z" fill="#2D2D2D"/>
<path d="M103.88 18.2348C104.956 19.2642 106.123 19.8628 107.289 19.8628C107.467 19.8628 107.739 19.8628 107.916 19.776C109.351 19.5187 110.431 18.4893 111.148 16.8613C111.775 15.3201 111.956 13.4319 111.598 11.4627C111.239 9.57743 110.34 7.77598 109.174 6.57597C107.916 5.28922 106.481 4.77452 105.134 5.03187C103.699 5.28922 102.619 6.31862 101.902 7.94658C101.275 9.48779 101.094 11.376 101.453 13.3452C101.814 15.3201 102.713 17.0348 103.88 18.2348Z" fill="#2D2D2D"/>
<path d="M117.881 19.2613C118.058 19.2613 118.239 19.3481 118.508 19.3481C119.765 19.3481 121.022 18.7466 122.008 17.7114C123.175 16.5056 123.983 14.7851 124.341 12.975C124.61 11.081 124.432 9.27378 123.624 7.81064C122.816 6.17401 121.559 5.22846 120.124 5.05496C118.689 4.88147 117.163 5.39906 115.996 6.6916C114.83 7.89739 114.022 9.61788 113.663 11.428C113.394 13.322 113.572 15.1292 114.38 16.5924C115.188 18.1423 116.445 19.0907 117.881 19.2613Z" fill="#2D2D2D"/>
<path d="M132.961 20.2069C132.87 18.5703 132.062 17.2806 130.896 16.5895C129.638 15.9013 128.113 15.9013 126.587 16.6763C125.062 17.3645 123.714 18.657 122.819 20.2069C121.83 21.8435 121.384 23.564 121.562 25.1139C121.652 26.7505 122.46 28.0402 123.627 28.7313C124.254 29.0754 124.884 29.2489 125.602 29.2489C126.319 29.2489 127.127 29.0783 127.935 28.7313C129.461 28.0431 130.808 26.7505 131.704 25.2007C132.692 23.5669 133.142 21.8435 132.961 20.2069Z" fill="#2D2D2D"/>
<path d="M115.535 72.5966C115.535 73.9036 114.585 74.8491 113.25 74.8491C112.002 74.8491 110.977 73.866 110.977 72.5966C110.977 71.3272 112.002 70.3325 113.25 70.3325C114.585 70.3296 115.535 71.2896 115.535 72.5966ZM116.72 74.7161V70.451H117.657V69.3493H115.508V70.1532C114.92 69.5055 114.208 69.2308 113.259 69.2308C112.222 69.2308 111.435 69.5315 110.747 70.1908C110.072 70.8385 109.698 71.6886 109.698 72.5995C109.698 73.5219 110.072 74.3605 110.747 75.0082C111.423 75.6443 112.246 75.9797 113.196 75.9797C114.157 75.9797 114.92 75.6674 115.52 75.0197V75.8352H117.657V74.7219H116.72V74.7161ZM102.354 74.7161H101.38V75.8294H104.492V74.7161H103.566V72.5127C103.566 71.0988 104.202 70.3556 105.315 70.3556C106.59 70.3556 106.952 71.0265 106.952 72.4896V74.719H106.026V75.8323H109.125V74.719H108.164V72.1542C108.164 71.1971 108.04 70.5725 107.377 69.9363C106.928 69.5055 106.264 69.2424 105.517 69.2424C104.618 69.2424 103.955 69.5778 103.518 70.2862V69.3522H101.407V70.4539H102.357V74.7161H102.354ZM94.808 72.5966C94.808 71.3272 95.833 70.3325 97.0932 70.3325C98.3414 70.3325 99.3664 71.3272 99.3664 72.5966C99.3664 73.866 98.3414 74.8491 97.0932 74.8491C95.833 74.8491 94.808 73.866 94.808 72.5966ZM93.5327 72.5966C93.5327 73.5074 93.9065 74.3576 94.5818 75.0053C95.2572 75.653 96.1435 76 97.0932 76C98.0429 76 98.9293 75.653 99.6046 75.0053C100.28 74.3576 100.642 73.519 100.642 72.5966C100.642 71.6742 100.28 70.8356 99.6046 70.1879C98.9293 69.5402 98.0429 69.1932 97.0932 69.1932C96.1435 69.1932 95.2572 69.5402 94.5818 70.1879C93.9095 70.8327 93.5327 71.6857 93.5327 72.5966ZM87.7984 73.733V75.8294H88.923V75.4101C89.3239 75.8062 89.7973 75.974 90.4213 75.974C91.7207 75.974 92.6071 75.1354 92.6071 73.973C92.6071 72.9291 92.0825 72.426 90.8947 72.0559C89.746 71.6973 89.0586 71.6973 89.0586 70.9889C89.0586 70.558 89.4325 70.1995 90.0204 70.1995C90.5962 70.1995 90.9701 70.5118 91.0454 71.0265H92.2182V69.3493H91.1811V69.7079C90.8193 69.3725 90.3822 69.2048 89.8696 69.2048C88.6818 69.2048 87.8467 69.9942 87.8467 71.0843C87.8467 71.732 88.121 72.1976 88.7089 72.559C88.9833 72.7267 89.5199 72.8453 90.2827 73.0621C91.0334 73.2645 91.356 73.4698 91.356 74.0453C91.356 74.5715 90.9309 74.907 90.2314 74.907C89.5682 74.907 89.0828 74.4385 89.0828 73.7561V73.733H87.7984ZM79.1308 71.5296C79.1308 70.7142 79.4925 69.8756 80.1166 69.2655C80.7045 68.6901 81.4793 68.3778 82.3144 68.3778C83.2641 68.3778 84.0028 68.7132 84.663 69.3956C85.2388 69.9942 85.5373 70.7257 85.5373 71.5036C85.5373 73.36 84.1505 74.774 82.3144 74.774C81.4914 74.774 80.6533 74.427 80.0412 73.8168C79.4654 73.2414 79.1308 72.4289 79.1308 71.5296ZM77.8042 71.518C77.8042 72.692 78.2052 73.733 78.9529 74.5368C79.8513 75.5084 80.9879 75.9971 82.3144 75.9971C83.65 75.9971 84.7896 75.5055 85.7001 74.56C86.4749 73.7561 86.8759 72.7383 86.8759 71.518C86.8759 70.3065 86.4146 69.2424 85.5132 68.3893C84.6389 67.5623 83.5656 67.1431 82.3144 67.1431C81.0904 67.1431 80.0412 67.5739 79.191 68.3778C78.2806 69.2395 77.8042 70.3296 77.8042 71.518ZM75.7179 70.1995C76.6405 69.9942 76.942 69.5171 76.942 68.5802V67.2992H75.7179V68.7248H76.131C76.131 69.144 76.0797 69.3233 75.7179 69.4332V70.1995ZM67.9849 72.5966C67.9849 71.3272 69.0099 70.3325 70.2581 70.3325C71.5936 70.3325 72.5433 71.2925 72.5433 72.5966C72.5433 73.9036 71.5936 74.8491 70.2581 74.8491C69.0099 74.8491 67.9849 73.866 67.9849 72.5966ZM72.5343 75.0168V75.8323H74.6718V74.719H73.7342V67.3137H71.5092V68.4154H72.5222V70.1532C71.9343 69.5055 71.1987 69.2192 70.2098 69.2192C69.2601 69.2192 68.4371 69.5546 67.7618 70.1908C67.0864 70.8385 66.7126 71.6771 66.7126 72.5995C66.7126 73.5219 67.0864 74.3605 67.7618 75.0082C68.4371 75.6443 69.2601 75.9797 70.2098 75.9797C71.1716 75.974 71.9343 75.6617 72.5343 75.0168ZM57.5294 73.733V75.8294H58.6539V75.4101C59.0549 75.8062 59.5282 75.974 60.1523 75.974C61.4517 75.974 62.3381 75.1354 62.3381 73.973C62.3381 72.9291 61.8135 72.426 60.6256 72.0559C59.477 71.6973 58.7896 71.6973 58.7896 70.9889C58.7896 70.558 59.1634 70.1995 59.7513 70.1995C60.3272 70.1995 60.701 70.5118 60.7764 71.0265H61.9491V69.3493H60.912V69.7079C60.5503 69.3725 60.1131 69.2048 59.6006 69.2048C58.4127 69.2048 57.5776 69.9942 57.5776 71.0843C57.5776 71.732 57.852 72.1976 58.4399 72.559C58.7142 72.7267 59.2509 72.8453 60.0136 73.0621C60.7643 73.2645 61.0869 73.4698 61.0869 74.0453C61.0869 74.5715 60.6618 74.907 59.9624 74.907C59.2991 74.907 58.8137 74.4385 58.8137 73.7561V73.733H57.5294ZM54.4934 74.7161H53.5196V75.8294H56.631V74.7161H55.7084V67.3108H53.5468V68.4125H54.4964V74.7161H54.4934ZM50.5711 72.5966C50.5711 73.9036 49.6214 74.8491 48.2859 74.8491C47.0377 74.8491 46.0127 73.866 46.0127 72.5966C46.0127 71.3272 47.0377 70.3325 48.2859 70.3325C49.6214 70.3296 50.5711 71.2896 50.5711 72.5966ZM51.759 74.7161V70.451H52.6966V69.3493H50.547V70.1532C49.9591 69.5055 49.2476 69.2308 48.2979 69.2308C47.2608 69.2308 46.4739 69.5315 45.7866 70.1908C45.1112 70.8385 44.7374 71.6886 44.7374 72.5995C44.7374 73.5219 45.1112 74.3605 45.7866 75.0082C46.4619 75.6443 47.2849 75.9797 48.2346 75.9797C49.1963 75.9797 49.9591 75.6674 50.5591 75.0197V75.8352H52.6936V74.7219H51.759V74.7161ZM32.669 75.8294H35.7562V74.7161H34.8306V72.5127C34.8306 71.0872 35.4064 70.3556 36.3802 70.3556C37.4686 70.3556 37.8304 71.038 37.8304 72.4896V74.719H36.8807V75.8323H39.9679V74.719H39.0182V72.5156C39.0182 71.0901 39.5941 70.3585 40.5679 70.3585C41.6562 70.3585 42.018 71.0409 42.018 72.4925V74.7219H41.0924V75.8352H44.1917V74.7219H43.2179V72.1571C43.2179 70.2746 42.2682 69.2452 40.806 69.2452C39.9076 69.2452 39.3077 69.653 38.7077 70.5407C38.2826 69.6905 37.5711 69.2452 36.6576 69.2452C35.8466 69.2452 35.2708 69.5807 34.7944 70.3122V69.3522H32.6961V70.4539H33.6458V74.719H32.672V75.8294H32.669ZM29.7687 68.7248H30.9927V67.3108H29.7687V68.7248ZM29.7837 74.7161H28.81V75.8294H31.9213V74.7161H30.9957V69.3493H28.8341V70.451H29.7837V74.7161ZM21.3995 74.7161H20.4257V75.8294H23.537V74.7161H22.6114V72.5127C22.6114 71.0988 23.2476 70.3556 24.36 70.3556C25.6353 70.3556 25.9971 71.0265 25.9971 72.4896V74.719H25.0715V75.8323H28.1708V74.719H27.2091V72.1542C27.2091 71.1971 27.0855 70.5725 26.4222 69.9363C25.973 69.5055 25.3097 69.2424 24.562 69.2424C23.6636 69.2424 23.0003 69.5778 22.5632 70.2862V69.3522H20.4528V70.4539H21.4025V74.7161H21.3995ZM16.9767 72.1513H14.4533L15.7165 68.9156L16.9767 72.1513ZM13.992 73.3513H17.441L17.9535 74.693H17.0159V75.8323H20.3895V74.693H19.3403L16.3556 67.3108H13.6332V68.424H14.6703L12.0956 74.6901H11.0585V75.8294H14.4201V74.6901H13.4463L13.992 73.3513ZM9.71995 70.1995C10.6455 69.9942 10.944 69.5171 10.944 68.5802V67.2992H9.71995V68.7248H10.133C10.133 69.144 10.0817 69.3233 9.71995 69.4332V70.1995ZM1.98687 72.5966C1.98687 71.3272 3.01191 70.3325 4.26006 70.3325C5.59564 70.3325 6.54531 71.2925 6.54531 72.5966C6.54531 73.9036 5.59564 74.8491 4.26006 74.8491C3.0089 74.8491 1.98687 73.866 1.98687 72.5966ZM6.53325 75.0168V75.8323H8.67078V74.719H7.73316V67.3137H5.50821V68.4154H6.52119V70.1532C5.9333 69.5055 5.19768 69.2192 4.21182 69.2192C3.26215 69.2192 2.43909 69.5546 1.76377 70.1908C1.08844 70.8385 0.7146 71.6771 0.7146 72.5995C0.7146 73.5219 1.08844 74.3605 1.76377 75.0082C2.43909 75.6443 3.26215 75.9797 4.21182 75.9797C5.17054 75.974 5.9333 75.6617 6.53325 75.0168Z" fill="#2D2D2D"/>
<path d="M130.802 61.4525H133V60.3392H132.014V56.0741H133V54.9725H132.014V52.9368H130.802V54.9725H129.741V56.0741H130.802V61.4525ZM127.055 58.2168C127.055 59.5238 126.105 60.4693 124.769 60.4693C123.521 60.4693 122.496 59.4862 122.496 58.2168C122.496 56.9474 123.521 55.9527 124.769 55.9527C126.105 55.9527 127.055 56.9098 127.055 58.2168ZM128.239 60.3363V56.0713H129.177V54.9696H127.028V55.7734C126.44 55.1257 125.728 54.851 124.778 54.851C123.741 54.851 122.954 55.1517 122.267 55.811C121.592 56.4587 121.218 57.3089 121.218 58.2197C121.218 59.1421 121.592 59.9807 122.267 60.6284C122.942 61.2645 123.765 61.6 124.715 61.6C125.677 61.6 126.44 61.2877 127.04 60.6428V61.4583H129.177V60.345H128.239V60.3363ZM120.633 59.2838H119.27C118.809 60.0616 118.082 60.4693 117.259 60.4693C115.996 60.4693 114.974 59.4746 114.974 58.2168C114.974 56.959 115.999 55.9527 117.259 55.9527C118.11 55.9527 118.809 56.3604 119.294 57.1382H120.443V54.9696H119.355V55.6635C118.918 55.1112 118.206 54.8134 117.305 54.8134C116.304 54.8134 115.429 55.1604 114.742 55.8081C114.067 56.4558 113.693 57.306 113.693 58.2168C113.693 59.1277 114.067 59.9778 114.742 60.6255C115.417 61.2732 116.304 61.6202 117.253 61.6202C118.794 61.6202 120.157 60.6862 120.633 59.2838ZM107.965 59.3561V61.4525H109.089V61.0332C109.49 61.4294 109.964 61.5971 110.588 61.5971C111.887 61.5971 112.773 60.7585 112.773 59.5961C112.773 58.5522 112.249 58.0491 111.061 57.679C109.912 57.3204 109.225 57.3204 109.225 56.612C109.225 56.1811 109.599 55.8197 110.187 55.8197C110.762 55.8197 111.136 56.132 111.212 56.6467H112.387V54.9696H111.35V55.3281C110.989 54.9927 110.551 54.825 110.039 54.825C108.851 54.825 108.016 55.6173 108.016 56.7074C108.016 57.3551 108.29 57.8207 108.878 58.1821C109.152 58.3498 109.689 58.4684 110.452 58.6852C111.203 58.8905 111.528 59.093 111.528 59.6684C111.528 60.1947 111.103 60.5301 110.404 60.5301C109.74 60.5301 109.255 60.0616 109.255 59.3792V59.3561H107.965ZM101.329 57.5807C101.679 56.5513 102.502 55.9498 103.527 55.9498C104.552 55.9498 105.402 56.5599 105.713 57.5807H101.329ZM106.864 59.3908H105.477C104.989 60.0992 104.317 60.4693 103.53 60.4693C102.469 60.4693 101.555 59.7869 101.281 58.6708H107.039C107.051 58.5146 107.063 58.3585 107.063 58.2023C107.063 57.5199 106.876 56.8954 106.475 56.3199C105.812 55.3628 104.727 54.8105 103.527 54.8105C102.577 54.8105 101.691 55.1575 101.015 55.8052C100.34 56.4529 99.9663 57.3031 99.9663 58.2139C99.9663 59.1248 100.34 59.9749 101.015 60.6226C101.691 61.2703 102.577 61.6173 103.527 61.6173C105.016 61.6202 106.288 60.7932 106.864 59.3908ZM94.5215 60.3132V57.4968L97.4579 61.4496H99.2306V60.3103H98.1935L96.5444 58.1763C98.0548 58.104 99.0678 57.0515 99.0678 55.6838C99.0678 53.9228 97.9433 52.9281 95.7817 52.9281H92.197V54.0414H93.2341V60.3074H92.197V61.4467H95.5586V60.3074H94.5215V60.3132ZM94.5215 57.3522V54.0818H95.4832C97.0449 54.0818 97.8076 54.5387 97.8076 55.6751C97.8076 56.8144 96.9333 57.3522 95.1727 57.3522H94.5215ZM82.2661 57.5807C82.6158 56.5513 83.4389 55.9498 84.4639 55.9498C85.489 55.9498 86.3392 56.5599 86.6497 57.5807H82.2661ZM87.7983 59.3908H86.4115C85.9231 60.0992 85.2508 60.4693 84.4639 60.4693C83.4027 60.4693 82.4892 59.7869 82.2149 58.6708H87.9732C87.9853 58.5146 87.9973 58.3585 87.9973 58.2023C87.9973 57.5199 87.8104 56.8954 87.4094 56.3199C86.7462 55.3628 85.6608 54.8105 84.4609 54.8105C83.5112 54.8105 82.6249 55.1575 81.9495 55.8052C81.2742 56.4529 80.9004 57.3031 80.9004 58.2139C80.9004 59.1248 81.2742 59.9749 81.9495 60.6226C82.6249 61.2703 83.5112 61.6173 84.4609 61.6173C85.9502 61.6202 87.2255 60.7932 87.7983 59.3908ZM74.12 60.3132V54.0587H75.2958C77.5931 54.0587 78.8925 55.2818 78.8925 57.2337C78.8925 59.1132 77.6685 60.3132 75.6817 60.3132H74.12ZM72.8568 60.3132H71.8197V61.4525H75.3681C76.4565 61.4525 77.379 61.4033 78.4041 60.6978C79.5648 59.9055 80.1919 58.6737 80.1919 57.1758C80.1919 55.8226 79.604 54.6226 78.6181 53.8447C77.7921 53.197 76.8936 52.9339 75.7329 52.9339H71.8227V54.0471H72.8598V60.3132H72.8568ZM63.152 54.1541H63.8876L65.6242 52.104H64.4001L63.152 54.1541ZM61.738 58.2168C61.738 56.9474 62.7631 55.9527 64.0233 55.9527C65.2714 55.9527 66.2965 56.9474 66.2965 58.2168C66.2965 59.4862 65.2714 60.4693 64.0233 60.4693C62.7631 60.4693 61.738 59.4862 61.738 58.2168ZM60.4658 58.2168C60.4658 59.1277 60.8396 59.9778 61.5149 60.6255C62.1902 61.2732 63.0766 61.6202 64.0263 61.6202C64.976 61.6202 65.8623 61.2732 66.5377 60.6255C67.213 59.9778 67.5748 59.1392 67.5748 58.2168C67.5748 57.2944 67.213 56.4558 66.5377 55.8081C65.8623 55.1604 64.976 54.8134 64.0263 54.8134C63.0766 54.8134 62.1902 55.1604 61.5149 55.8081C60.8396 56.4558 60.4658 57.306 60.4658 58.2168ZM57.6288 54.345H58.8528V52.931H57.6288V54.345ZM57.6408 60.3363H56.667V61.4496H59.7784V60.3363H58.8528V54.9696H56.6912V56.0713H57.6408V60.3363ZM56.0189 59.2838H54.6561C54.1949 60.0616 53.4683 60.4693 52.6452 60.4693C51.385 60.4693 50.36 59.4746 50.36 58.2168C50.36 56.959 51.385 55.9527 52.6452 55.9527C53.4954 55.9527 54.1949 56.3604 54.6833 57.1382H55.8319V54.9696H54.7436V55.6635C54.3064 55.1112 53.5949 54.8134 52.6935 54.8134C51.6926 54.8134 50.8182 55.1604 50.1309 55.8081C49.4555 56.4558 49.0817 57.306 49.0817 58.2168C49.0817 59.1277 49.4555 59.9778 50.1309 60.6255C50.8062 61.2732 51.6926 61.6202 52.6422 61.6202C54.1828 61.6202 55.5425 60.6862 56.0189 59.2838ZM46.1995 58.2168C46.1995 59.5238 45.2498 60.4693 43.9142 60.4693C42.6661 60.4693 41.6411 59.4862 41.6411 58.2168C41.6411 56.9474 42.6661 55.9527 43.9142 55.9527C45.2498 55.9527 46.1995 56.9098 46.1995 58.2168ZM47.3843 60.3363V56.0713H48.322V54.9696H46.1724V55.7734C45.5845 55.1257 44.873 54.851 43.9233 54.851C42.8862 54.851 42.0993 55.1517 41.4119 55.811C40.7366 56.4587 40.3628 57.3089 40.3628 58.2197C40.3628 59.1421 40.7366 59.9807 41.4119 60.6284C42.0873 61.2645 42.9103 61.6 43.86 61.6C44.8217 61.6 45.5845 61.2877 46.1844 60.6428V61.4583H48.322V60.345H47.3843V60.3363ZM37.5288 54.345H38.7528V52.931H37.5288V54.345ZM37.5409 60.3363H36.5671V61.4496H39.6784V60.3363H38.7528V54.9696H36.5912V56.0713H37.5409V60.3363ZM35.9159 59.2838H34.5532C34.0919 60.0616 33.3653 60.4693 32.5423 60.4693C31.279 60.4693 30.257 59.4746 30.257 58.2168C30.257 56.959 31.282 55.9527 32.5423 55.9527C33.3924 55.9527 34.0919 56.3604 34.5773 57.1382H35.7259V54.9696H34.6376V55.6635C34.2004 55.1112 33.4889 54.8134 32.5875 54.8134C31.5865 54.8134 30.7122 55.1604 30.0279 55.8081C29.3525 56.4558 28.9787 57.306 28.9787 58.2168C28.9787 59.1277 29.3525 59.9778 30.0279 60.6255C30.7032 61.2732 31.5896 61.6202 32.5392 61.6202C34.0798 61.6202 35.4425 60.6862 35.9159 59.2838ZM22.4757 58.2168C22.4757 56.9474 23.5007 55.9527 24.7609 55.9527C26.0091 55.9527 27.0341 56.9474 27.0341 58.2168C27.0341 59.4862 26.0091 60.4693 24.7609 60.4693C23.4977 60.4693 22.4757 59.4862 22.4757 58.2168ZM21.2004 58.2168C21.2004 59.1277 21.5742 59.9778 22.2496 60.6255C22.9249 61.2732 23.8113 61.6202 24.7609 61.6202C25.7106 61.6202 26.597 61.2732 27.2723 60.6255C27.9476 59.9778 28.3094 59.1392 28.3094 58.2168C28.3094 57.2944 27.9476 56.4558 27.2723 55.8081C26.597 55.1604 25.7106 54.8134 24.7609 54.8134C23.8113 54.8134 22.9249 55.1604 22.2496 55.8081C21.5742 56.4558 21.2004 57.306 21.2004 58.2168ZM15.4662 59.3561V61.4525H16.5907V61.0332C16.9917 61.4294 17.465 61.5971 18.0891 61.5971C19.3885 61.5971 20.2748 60.7585 20.2748 59.5961C20.2748 58.5522 19.7503 58.0491 18.5624 57.679C17.4138 57.3204 16.7264 57.3204 16.7264 56.612C16.7264 56.1811 17.1002 55.8197 17.6881 55.8197C18.2639 55.8197 18.6378 56.132 18.7132 56.6467H19.8889V54.9696H18.8518V55.3281C18.4901 54.9927 18.0529 54.825 17.5404 54.825C16.3525 54.825 15.5174 55.6173 15.5174 56.7074C15.5174 57.3551 15.7918 57.8207 16.3797 58.1821C16.654 58.3498 17.1907 58.4684 17.9534 58.6852C18.7041 58.8905 19.0267 59.093 19.0267 59.6684C19.0267 60.1947 18.6016 60.5301 17.9022 60.5301C17.2389 60.5301 16.7535 60.0616 16.7535 59.3792V59.3561H15.4662ZM9.51787 59.3561V61.4525H10.6424V61.0332C11.0434 61.4294 11.5167 61.5971 12.1408 61.5971C13.4402 61.5971 14.3265 60.7585 14.3265 59.5961C14.3265 58.5522 13.802 58.0491 12.6141 57.679C11.4655 57.3204 10.7781 57.3204 10.7781 56.612C10.7781 56.1811 11.1519 55.8197 11.7398 55.8197C12.3156 55.8197 12.6895 56.132 12.7649 56.6467H13.9406V54.9696H12.9035V55.3281C12.5418 54.9927 12.1046 54.825 11.5921 54.825C10.4042 54.825 9.56912 55.6173 9.56912 56.7074C9.56912 57.3551 9.84347 57.8207 10.4314 58.1821C10.7057 58.3498 11.2424 58.4684 12.0051 58.6852C12.7558 58.8905 13.0784 59.093 13.0784 59.6684C13.0784 60.1947 12.6533 60.5301 11.9539 60.5301C11.2906 60.5301 10.8052 60.0616 10.8052 59.3792V59.3561H9.51787ZM5.92116 57.7744H3.39773L4.66095 54.5387L5.92116 57.7744ZM2.93646 58.9715H6.38544L6.89797 60.3132H5.96035V61.4525H9.33095V60.3132H8.28178L5.29708 52.931H2.57468V54.0443H3.61179L1.03711 60.3103H0V61.4496H3.36155V60.3103H2.38776L2.93646 58.9715Z" fill="#2D2D2D"/>
</svg>
