<svg width="26" height="28" viewBox="0 0 26 28" fill="none" xmlns="http://www.w3.org/2000/svg">
<path d="M24.3169 1.81249H17.7879L17.2765 0.795053C17.1681 0.577535 17.0013 0.394565 16.7946 0.266724C16.5879 0.138884 16.3497 0.0712464 16.1067 0.0714207H9.88782C9.64537 0.0704886 9.40755 0.137874 9.20163 0.265857C8.9957 0.393839 8.82999 0.577242 8.72348 0.795053L8.21204 1.81249H1.68303C1.45215 1.81249 1.23073 1.90421 1.06747 2.06746C0.904217 2.23072 0.8125 2.45214 0.8125 2.68302L0.8125 4.42409C0.8125 4.65497 0.904217 4.8764 1.06747 5.03965C1.23073 5.20291 1.45215 5.29463 1.68303 5.29463H24.3169C24.5478 5.29463 24.7692 5.20291 24.9325 5.03965C25.0958 4.8764 25.1875 4.65497 25.1875 4.42409V2.68302C25.1875 2.45214 25.0958 2.23072 24.9325 2.06746C24.7692 1.90421 24.5478 1.81249 24.3169 1.81249ZM3.70703 25.4802C3.74855 26.1432 4.04118 26.7655 4.52536 27.2203C5.00954 27.6752 5.64886 27.9284 6.31319 27.9285H19.6868C20.3511 27.9284 20.9904 27.6752 21.4746 27.2203C21.9588 26.7655 22.2514 26.1432 22.2929 25.4802L23.4464 7.0357H2.55357L3.70703 25.4802Z" fill="black"/>
</svg>
