<svg width="32" height="30" viewBox="0 0 32 30" fill="none" xmlns="http://www.w3.org/2000/svg">
<path d="M22.3667 5.40011L27.3778 10.4112C27.5889 10.6223 27.5889 10.9668 27.3778 11.1779L15.2444 23.3112L10.0889 23.8834C9.4 23.9612 8.81667 23.3779 8.89444 22.689L9.46667 17.5334L21.6 5.40011C21.8111 5.189 22.1556 5.189 22.3667 5.40011ZM31.3667 4.12789L28.6556 1.41678C27.8111 0.572336 26.4389 0.572336 25.5889 1.41678L23.6222 3.38345C23.4111 3.59456 23.4111 3.939 23.6222 4.15011L28.6333 9.16122C28.8444 9.37234 29.1889 9.37234 29.4 9.16122L31.3667 7.19456C32.2111 6.34456 32.2111 4.97234 31.3667 4.12789ZM21.3333 20.0112V25.6668H3.55556V7.889H16.3222C16.5 7.889 16.6667 7.81678 16.7944 7.69456L19.0167 5.47234C19.4389 5.05011 19.1389 4.33345 18.5444 4.33345H2.66667C1.19444 4.33345 0 5.52789 0 7.00011V26.5557C0 28.0279 1.19444 29.2223 2.66667 29.2223H22.2222C23.6944 29.2223 24.8889 28.0279 24.8889 26.5557V17.789C24.8889 17.1946 24.1722 16.9001 23.75 17.3168L21.5278 19.539C21.4056 19.6668 21.3333 19.8334 21.3333 20.0112Z" fill="black"/>
</svg>
