<svg width="32" height="32" viewBox="0 0 32 32" fill="none" xmlns="http://www.w3.org/2000/svg">
<path d="M25.499 23.5117C24.2725 21.116 22.8423 18.7958 20.7988 17.2702C20.5952 17.1264 20.4579 17.0533 20.2542 16.9071C17.3252 15.2376 13.442 16.7608 11.8745 18.4303C10.7853 19.5903 8.19492 22.7123 7.30935 26.4118C7.2407 26.7749 6.55879 29.8945 8.19492 31.347C8.67088 31.7832 9.35279 32.0001 10.1697 32.0001C11.1239 32.0001 12.2818 31.7101 13.6433 31.057C15.9591 29.9676 17.9362 29.6776 19.57 30.26C20.046 30.4038 20.5242 30.6963 21.0689 30.9863C21.6821 31.3494 22.2954 31.7125 22.9086 31.8563C24.1352 32.1463 25.8377 31.5663 26.7232 30.55C28.2907 28.7368 26.7919 25.978 25.8377 24.1648C25.7027 23.9479 25.5676 23.7286 25.499 23.5117Z" fill="#23262F"/>
<path d="M9.89733 11.1821C10.7142 12.0497 11.5998 12.5542 12.4854 12.5542C12.6204 12.5542 12.8263 12.5542 12.9613 12.4811C14.0506 12.2642 14.8698 11.3966 15.4144 10.0245C15.8904 8.72548 16.0277 7.13405 15.7554 5.47437C15.4831 3.88537 14.8011 2.36705 13.9156 1.35565C12.9614 0.271129 11.8721 -0.162677 10.8493 0.0542258C9.76003 0.271129 8.94082 1.13874 8.39621 2.51084C7.92024 3.80982 7.78294 5.40126 8.05524 7.06093C8.32984 8.72548 9.01176 10.1707 9.89733 11.1821Z" fill="#23262F"/>
<path d="M3.93135 19.8627C4.88656 20.534 5.84444 20.8342 6.71255 20.6399C6.84489 20.6103 7.04678 20.5651 7.16611 20.4638C8.19527 20.0122 8.84393 18.9819 9.13365 17.5174C9.36908 16.1395 9.22048 14.5494 8.65821 12.9822C8.10851 11.4842 7.16986 10.1455 6.12178 9.34834C4.99338 8.49458 3.84844 8.30833 2.88434 8.74539C1.85518 9.19702 1.20652 10.2273 0.916801 11.6918C0.681372 13.0696 0.829969 14.6598 1.39224 16.227C1.95763 17.7985 2.88327 19.0656 3.93135 19.8627Z" fill="#23262F"/>
<path d="M20.5242 12.0473C20.6592 12.0473 20.7965 12.1204 21.0002 12.1204C21.9544 12.1204 22.9086 11.6135 23.6569 10.741C24.5424 9.72476 25.1557 8.27467 25.428 6.74904C25.6317 5.15273 25.4967 3.62953 24.8834 2.39635C24.2701 1.01694 23.3159 0.220008 22.2267 0.0737808C21.1375 -0.0724462 19.9796 0.363797 19.094 1.45319C18.2084 2.46947 17.5952 3.91955 17.3229 5.44518C17.1192 7.04149 17.2542 8.56469 17.8675 9.79787C18.4807 11.1042 19.435 11.9035 20.5242 12.0473Z" fill="#23262F"/>
<path d="M31.9701 12.8443C31.9015 11.4649 31.2882 10.3779 30.4027 9.79543C29.4484 9.2154 28.2906 9.2154 27.1327 9.86855C25.9748 10.4486 24.9519 11.538 24.2723 12.8443C23.5218 14.2237 23.1831 15.6738 23.3181 16.98C23.3868 18.3595 24 19.4464 24.8856 20.0289C25.3616 20.3189 25.8398 20.4651 26.3844 20.4651C26.929 20.4651 27.5423 20.3213 28.1556 20.0289C29.3134 19.4488 30.3363 18.3595 31.0159 17.0532C31.7665 15.6762 32.1074 14.2237 31.9701 12.8443Z" fill="#23262F"/>
</svg>
